<svg width="338" height="105" viewBox="0 0 338 105" fill="none" xmlns="http://www.w3.org/2000/svg">
<path d="M175.833 44.2518C175.833 47.6321 173.753 50.4467 171.404 51.8336C169.054 53.2208 166.191 53.8672 160.466 53.8672C159.115 53.8672 158.251 53.8267 156.82 53.7862C156.347 53.7862 155.294 53.6516 154.132 53.6112V53.5304V38.5824V34.2597V20.2677V20.133C154.875 20.0522 155.955 19.9579 157.09 19.9174C158.345 19.8367 160.303 19.8367 161.911 19.8367C163.909 19.8367 166.299 20.133 168.068 20.6582C170.107 21.2641 174.456 23.1631 174.456 29.0076C174.456 32.0375 172.673 35.0676 169.419 36.0237V36.1044C172.767 36.7913 175.846 39.8214 175.846 44.198V44.2518H175.833ZM166.718 29.7483C166.718 27.6204 165.286 26.4624 163.072 26.4624C162.68 26.4624 161.937 26.5028 161.546 26.5431V33.1283C162.018 33.1688 162.451 33.1688 162.802 33.1688C163.328 33.1688 163.842 33.1283 164.584 32.859C165.584 32.5088 166.718 31.5123 166.718 29.7886V29.7483ZM167.677 43.1745C167.677 41.397 166.421 40.1849 165.111 39.7943C164.503 39.6192 163.639 39.4982 163.031 39.4982C162.721 39.4982 161.951 39.5385 161.559 39.5385V46.9452C161.559 46.9857 161.559 47.0259 161.6 47.0259C161.992 47.0664 162.599 47.0664 163.126 47.0664C163.869 47.0664 164.773 46.9318 165.556 46.5412C166.596 46.0699 167.69 45.033 167.69 43.2015V43.1745H167.677Z" fill="#183952"></path>
<path d="M214.603 36.6834C214.603 46.6353 207.094 54.2575 196.844 54.2575C186.771 54.2575 179.047 46.6353 179.047 36.8989C179.047 27.1624 186.812 19.5403 197.156 19.5403C207.31 19.5403 214.603 26.9469 214.603 36.6429V36.6834ZM206.391 36.8046C206.391 31.2698 202.436 26.893 196.967 26.893C191.281 26.893 187.244 31.135 187.244 36.8989C187.244 42.5279 191.201 46.9047 196.967 46.9047C202.692 46.9047 206.391 42.4876 206.391 36.8585V36.8046Z" fill="#183952"></path>
<path d="M248.239 54.3787H247.16C238.948 38.6226 238.045 36.4545 237.262 34.3403H237.22C236.437 36.5085 235.478 38.6631 227.188 54.3787H226.107L219.679 33.5189C216.209 22.301 215.682 20.5369 215.562 20.0521V19.9714H219.95H223.812V20.0521C223.947 20.5235 224.635 22.2606 226.986 30.1791C227.633 32.3875 228.12 34.2056 228.552 35.9428H228.687C229.47 34.1248 230.509 31.8759 231.59 29.8423C234.101 25.0349 235.979 21.8835 236.924 20.1867H238.058C238.977 21.8297 240.705 24.7789 243.662 30.0983C244.445 31.5258 245.566 33.9497 246.349 35.8082H246.484C246.916 33.9093 247.227 32.6974 247.781 30.6505C250.13 22.126 250.9 20.483 251.035 20.0386V19.9578H254.721H258.625V20.0386C258.489 20.6042 257.975 22.2875 254.587 33.465L248.239 54.3787Z" fill="#183952"></path>
<path d="M261.351 34.2456V20.0517V19.9708H270.818H279.366V26.6772H279.284H274.032H269.386V33.3029H274.424H278.109H278.191V36.5484V40.0093H278.109H274.504H269.386V46.1097V46.9716H276.245H279.542H279.622V53.7183H271.372H261.338V53.6376V38.5819V34.2456H261.351Z" fill="#183952"></path>
<path d="M284.928 34.2459V20.1868V20.106C285.671 20.0251 286.886 19.931 288.007 19.8905C288.965 19.85 291.045 19.8098 292.22 19.8098C295.002 19.8098 297.162 20.0656 299.121 20.5908C302.024 21.3718 306.021 23.8362 306.021 30.0713C306.021 33.7881 304.238 36.4815 302.901 37.5588C302.118 38.2457 301.215 38.9054 300.647 39.121V39.2556C300.957 39.6866 301.511 40.6022 307.939 50.0289C308.844 51.3756 310.194 53.3149 310.41 53.665V53.7458H305.939H302.727H301.375C298.946 49.8539 296.083 45.2215 293.301 40.7639H292.518V42.8916V53.665V53.7458H288.736H284.928V53.665V38.5822V34.2459ZM298.256 30.6639C298.256 28.0244 296.65 26.4622 294.043 26.4622C293.301 26.4622 292.909 26.5026 292.518 26.5431V35.1617C292.829 35.2022 293.26 35.2022 293.652 35.2022C294.786 35.2022 295.785 34.8521 296.515 34.3402C297.298 33.815 298.256 32.5627 298.256 30.7042V30.6639Z" fill="#183952"></path>
<path d="M326.819 39.4039V40.4004V53.6516V53.7326H322.917H318.798V53.5978V40.5352V39.8483L315.584 34.2596C308.724 22.3551 307.643 20.5371 307.374 20.0657V19.985H312.369H316.407V20.0657C316.624 20.4563 317.703 22.3551 319.311 25.2235C320.606 27.5667 321.958 29.9369 322.781 31.7144H322.862C323.687 29.9369 324.941 27.7687 326.334 25.3986C328.115 22.3685 329.29 20.3351 329.452 20.0791V19.9983H334.179H338V20.1331C337.784 20.564 336.744 22.3416 329.79 34.2866L326.819 39.4039Z" fill="#183952"></path>
<path d="M154.482 74.6065C154.482 64.8835 161.72 59.4968 170.282 59.4968C171.767 59.4968 172.834 59.6046 173.482 59.6854C174.4 59.7931 175.535 60.022 176.183 60.1837C176.142 60.8704 176.142 62.042 176.102 62.2711H175.98C175.48 62.1229 174.873 61.9612 174.265 61.8535C173.239 61.6649 171.942 61.5168 170.417 61.5168C162.112 61.5168 156.818 66.4861 156.818 74.7277C156.818 82.6327 162.638 87.9789 170.106 87.9789C171.632 87.9789 172.996 87.8307 174.103 87.6018C174.751 87.4537 175.251 87.2653 175.777 87.0766H175.818C175.859 87.8307 175.859 88.5176 175.899 89.1236C175.17 89.3525 174.225 89.5816 173.266 89.7297C172.199 89.8777 170.862 89.9989 169.768 89.9989C161.815 89.9989 154.455 84.5719 154.455 74.6603V74.6065H154.482Z" fill="#183952"></path>
<path d="M191.995 79.6151C188.754 87.52 188.038 89.2573 187.957 89.4862V89.567H186.972H185.716V89.4862C185.797 89.2976 186.594 87.547 191.199 76.1945L198.017 59.4419H198.248L204.837 76.2619C209.252 87.5067 209.941 89.2168 210.022 89.4727V89.5536H208.807H207.739V89.4727C207.659 89.2438 206.985 87.4931 203.824 79.6017H191.995V79.6151ZM203.041 77.7163L203.001 77.5681C199.084 67.3469 198.584 66.0676 198.086 64.4651H198.004C197.478 66.054 196.898 67.3873 192.819 77.5681L192.778 77.7163H203.041Z" fill="#183952"></path>
<path d="M221.056 72.4782V60.1293V60.0621C221.394 60.0216 221.812 59.9811 222.541 59.9542C223.487 59.9139 224.717 59.8735 225.135 59.8735C226.85 59.8735 228.794 60.1428 230.091 60.6276C233.062 61.732 235.343 64.4656 235.343 68.5325C235.343 69.933 234.966 71.4548 234.466 72.4782C234.006 73.421 233.291 74.3367 232.602 74.9427C231.617 75.818 230.36 76.5723 228.876 76.9896C227.201 77.4879 225.215 77.4879 223.204 77.4879V78.3229V89.4867V89.5677H222.177H221.071V89.4867V76.276V72.4782H221.056ZM233.047 68.4518C233.047 65.6372 231.563 63.5095 229.159 62.4861C228.133 62.0281 226.498 61.8396 224.824 61.8396C224.405 61.8396 223.649 61.8801 223.191 61.9204V75.5217C223.5 75.5217 224.176 75.5622 224.635 75.5622C225.998 75.5622 227.268 75.4545 228.362 75.1044C229.428 74.7676 230.645 74 231.374 73.2056C232.44 72.034 233.047 70.6199 233.047 68.4923V68.4518Z" fill="#183952"></path>
<path d="M250.144 76.2753V89.4862V89.5669H249.036H248.011V89.4592V76.2753V72.4777V60.1018V59.9537H249.036H250.144V60.0613V72.4777V76.2753Z" fill="#183952"></path>
<path d="M270.52 61.8798H263.743H261.419H261.231V59.9407H270.291H272.885H281.987V61.8798H281.798H279.284H272.656V76.2759V89.4866V89.5673H271.628H270.52V89.4597V76.2759V61.8798Z" fill="#183952"></path>
<path d="M292.694 79.6151C289.453 87.52 288.737 89.2573 288.657 89.4862V89.567H287.669H286.415V89.4862C286.495 89.2976 287.291 87.547 291.897 76.1945L298.715 59.4419H298.946L305.535 76.2619C309.95 87.5067 310.64 89.2168 310.722 89.4727V89.5536H309.505H308.44V89.4727C308.358 89.2438 307.683 87.4931 304.523 79.6017H292.694V79.6151ZM303.726 77.7163L303.686 77.5681C299.769 67.3469 299.269 66.0676 298.771 64.4651H298.689C298.163 66.054 297.583 67.3873 293.504 77.5681L293.463 77.7163H303.726Z" fill="#183952"></path>
<path d="M321.739 72.4777V60.1018V59.9537H322.767H323.875V60.1018V72.4777V76.2753V87.3316C323.875 87.52 323.915 87.5605 324.022 87.5605H332.098H333.691H334.609H334.718V89.5669H328.546H321.726V89.3785V76.2753V72.4777H321.739Z" fill="#183952"></path>
<path fill-rule="evenodd" clip-rule="evenodd" d="M0 0H130.149V105H0V0ZM113.837 17.5071L118.32 20.0254L80.4016 89.581L75.9185 87.0628L113.837 17.5071ZM22.2269 60.0619V46.0969C22.2269 36.7915 22.2269 32.0376 21.9433 26.7318C21.8488 24.3077 21.3897 22.4494 17.9327 22.4494C16.1637 22.4494 14.4757 22.4494 12.8013 22.7321V19.379C16.7174 19.5674 23.0777 19.8503 28.4926 19.8503C30.9986 19.8503 33.7218 19.7419 36.5566 19.6291L36.5568 19.6291H36.5569H36.5569C39.634 19.5067 42.8426 19.379 46.0475 19.379C51.5571 19.379 69.4901 19.379 69.4901 36.3336C69.4901 48.3458 57.5392 51.0527 54.0824 51.1334V51.3221C64.7233 53.6517 71.5427 58.1226 71.5427 69.758C71.5291 85.7699 57.1611 87.5339 47.344 87.5339C43.5247 87.5339 39.6757 87.4042 36.0174 87.2808H36.0172H36.017L36.0163 87.2808H36.0161H36.0159H36.0157C32.7028 87.1691 29.5464 87.0627 26.7101 87.0627C20.917 87.0627 15.9747 87.3455 12.8013 87.5339V84.1808C13.9221 84.4635 15.2319 84.4635 16.8119 84.4635C21.6301 84.4635 21.7512 81.9807 21.9294 78.3249L21.9433 78.04C22.1324 73.5691 22.2269 66.5797 22.2269 60.0619ZM34.745 50.1907C44.1706 50.1907 55.4733 49.5443 55.4733 36.1314C55.4733 27.3783 49.68 22.1666 41.5643 22.1666C34.8395 22.1666 34.745 24.1192 34.745 38.0842V50.1907ZM34.745 68.9096C34.745 84.4635 36.1492 84.4635 42.0234 84.4635C50.5173 84.4635 56.8641 80.8276 56.8641 69.5694C56.8641 52.8033 41.9289 52.8033 34.7314 52.8033V68.9096H34.745Z" fill="#183952"></path>
</svg>