<svg width="460" height="460" viewBox="0 0 460 460" fill="none" xmlns="http://www.w3.org/2000/svg">
<path d="M297.024 210.017C290.347 223.953 289.213 239.905 293.854 254.644C293.854 254.644 308.597 291.502 338.083 291.502C348.571 291.871 358.928 289.08 367.811 283.491C376.694 277.902 383.693 269.773 387.9 260.158C388.454 258.693 389.461 257.443 390.775 256.588C392.088 255.734 393.639 255.321 395.203 255.408C396.768 255.495 398.264 256.078 399.474 257.073C400.684 258.068 401.546 259.422 401.935 260.94C404.22 267.619 405.14 274.689 404.64 281.731C404.14 288.772 402.231 295.642 399.026 301.931C395.821 308.221 391.384 313.803 385.981 318.345C380.577 322.887 374.316 326.298 367.569 328.374C355.177 333.084 341.732 334.307 328.694 331.91C315.656 329.514 303.525 323.589 293.618 314.781C293.618 314.781 285.789 370.805 374.705 365.94C372.179 375.902 366.501 384.781 358.517 391.254C350.533 397.726 340.671 401.444 330.402 401.854C294.694 402.311 242.253 365.232 234.882 306.26C227.51 365.232 175.069 402.311 139.362 401.854C129.103 401.427 119.256 397.7 111.287 391.226C103.318 384.752 97.6518 375.878 95.1327 365.925C184.048 370.76 176.219 314.781 176.219 314.781C166.305 323.603 154.161 329.535 141.108 331.932C128.056 334.329 114.596 333.098 102.195 328.374C95.4505 326.296 89.1923 322.885 83.7909 318.343C78.3896 313.801 73.955 308.221 70.7502 301.934C67.5453 295.647 65.6353 288.78 65.1335 281.74C64.6316 274.701 65.5481 267.633 67.8286 260.954C68.2172 259.437 69.0792 258.082 70.2896 257.088C71.5 256.093 72.9958 255.51 74.5601 255.423C76.1244 255.335 77.6757 255.749 78.989 256.603C80.3024 257.457 81.3094 258.708 81.864 260.173C86.0691 269.789 93.0674 277.919 101.951 283.508C110.834 289.097 121.192 291.888 131.681 291.517C161.167 291.517 175.91 254.659 175.91 254.659C180.559 239.922 179.431 223.968 172.755 210.032L155.269 170.624C150.112 160.015 147.106 148.491 146.424 136.715C146.424 85.1145 194.176 63 234.882 63C275.587 63 323.34 85.1145 323.34 136.715C322.66 148.491 319.654 160.016 314.494 170.624L297.024 210.017Z" fill="#8B5CF6"/>
<path d="M297.024 210.017C290.347 223.953 289.213 239.905 293.854 254.644C293.854 254.644 308.597 291.502 338.083 291.502C348.571 291.871 358.928 289.08 367.811 283.491C376.694 277.902 383.693 269.773 387.9 260.158C388.454 258.693 389.461 257.443 390.775 256.588C392.088 255.734 393.639 255.321 395.203 255.408C396.768 255.495 398.264 256.078 399.474 257.073C400.684 258.068 401.546 259.422 401.935 260.94C404.22 267.619 405.14 274.689 404.64 281.731C404.14 288.772 402.231 295.642 399.026 301.931C395.821 308.221 391.384 313.803 385.981 318.345C380.577 322.887 374.316 326.298 367.569 328.374C355.177 333.084 341.732 334.307 328.694 331.91C315.656 329.514 303.525 323.589 293.618 314.781C293.618 314.781 285.789 370.805 374.705 365.94C372.179 375.902 366.501 384.781 358.517 391.254C350.533 397.726 340.671 401.444 330.402 401.854C294.694 402.311 242.253 365.232 234.882 306.26C227.51 365.232 175.069 402.311 139.362 401.854C129.103 401.427 119.256 397.7 111.287 391.226C103.318 384.752 97.6518 375.878 95.1327 365.925C184.048 370.76 176.219 314.781 176.219 314.781C166.305 323.603 154.161 329.535 141.108 331.932C128.056 334.329 114.596 333.098 102.195 328.374C95.4505 326.296 89.1923 322.885 83.7909 318.343C78.3896 313.801 73.955 308.221 70.7502 301.934C67.5453 295.647 65.6353 288.78 65.1335 281.74C64.6316 274.701 65.5481 267.633 67.8286 260.954C68.2172 259.437 69.0792 258.082 70.2896 257.088C71.5 256.093 72.9958 255.51 74.5601 255.423C76.1244 255.335 77.6757 255.749 78.989 256.603C80.3024 257.457 81.3094 258.708 81.864 260.173C86.0691 269.789 93.0674 277.919 101.951 283.508C110.834 289.097 121.192 291.888 131.681 291.517C161.167 291.517 175.91 254.659 175.91 254.659C180.559 239.922 179.431 223.968 172.755 210.032L155.269 170.624C150.112 160.015 147.106 148.491 146.424 136.715C146.424 85.1145 194.176 63 234.882 63C275.587 63 323.34 85.1145 323.34 136.715C322.66 148.491 319.654 160.016 314.494 170.624L297.024 210.017Z" fill="#8B5CF6"/>
<path d="M209.096 177.259C210.074 177.259 211.011 177.647 211.702 178.338C212.394 179.03 212.782 179.967 212.782 180.945" fill="white"/>
<path d="M209.096 177.259C210.074 177.259 211.011 177.647 211.702 178.338C212.394 179.03 212.782 179.967 212.782 180.945" stroke="#1C1C1C" stroke-width="24" stroke-linecap="round" stroke-linejoin="round"/>
<path d="M205.396 180.945C205.396 179.967 205.784 179.03 206.475 178.338C207.166 177.647 208.104 177.259 209.081 177.259" fill="white"/>
<path d="M205.396 180.945C205.396 179.967 205.784 179.03 206.475 178.338C207.166 177.647 208.104 177.259 209.081 177.259" stroke="#1C1C1C" stroke-width="24" stroke-linecap="round" stroke-linejoin="round"/>
<path d="M209.096 184.63C208.119 184.63 207.181 184.242 206.49 183.551C205.799 182.859 205.411 181.922 205.411 180.944" fill="white"/>
<path d="M209.096 184.63C208.119 184.63 207.181 184.242 206.49 183.551C205.799 182.859 205.411 181.922 205.411 180.944" stroke="#1C1C1C" stroke-width="24" stroke-linecap="round" stroke-linejoin="round"/>
<path d="M212.767 180.944C212.767 181.922 212.379 182.859 211.688 183.551C210.997 184.242 210.059 184.63 209.082 184.63" fill="white"/>
<path d="M212.767 180.944C212.767 181.922 212.379 182.859 211.688 183.551C210.997 184.242 210.059 184.63 209.082 184.63" stroke="#1C1C1C" stroke-width="24" stroke-linecap="round" stroke-linejoin="round"/>
<path d="M260.697 177.259C259.719 177.259 258.782 177.647 258.091 178.338C257.4 179.03 257.011 179.967 257.011 180.945" fill="white"/>
<path d="M260.697 177.259C259.719 177.259 258.782 177.647 258.091 178.338C257.4 179.03 257.011 179.967 257.011 180.945" stroke="#1C1C1C" stroke-width="24" stroke-linecap="round" stroke-linejoin="round"/>
<path d="M264.368 180.945C264.368 179.967 263.98 179.03 263.288 178.338C262.597 177.647 261.66 177.259 260.682 177.259" fill="white"/>
<path d="M264.368 180.945C264.368 179.967 263.98 179.03 263.288 178.338C262.597 177.647 261.66 177.259 260.682 177.259" stroke="#1C1C1C" stroke-width="24" stroke-linecap="round" stroke-linejoin="round"/>
<path d="M260.697 184.63C261.674 184.63 262.612 184.242 263.303 183.551C263.994 182.859 264.383 181.922 264.383 180.944" fill="white"/>
<path d="M260.697 184.63C261.674 184.63 262.612 184.242 263.303 183.551C263.994 182.859 264.383 181.922 264.383 180.944" stroke="#1C1C1C" stroke-width="24" stroke-linecap="round" stroke-linejoin="round"/>
<path d="M256.996 180.944C256.996 181.922 257.384 182.859 258.076 183.551C258.767 184.242 259.704 184.63 260.682 184.63" fill="white"/>
<path d="M256.996 180.944C256.996 181.922 257.384 182.859 258.076 183.551C258.767 184.242 259.704 184.63 260.682 184.63" stroke="#1C1C1C" stroke-width="24" stroke-linecap="round" stroke-linejoin="round"/>
</svg>
