<svg width="2743" height="568" viewBox="0 0 2743 568" fill="none" xmlns="http://www.w3.org/2000/svg">
<rect width="2739" height="568" fill="black"/>
<rect x="39" y="4" width="560" height="560" fill="black"/>
<path d="M381.024 262.017C374.347 275.953 373.213 291.905 377.854 306.644C377.854 306.644 392.597 343.502 422.083 343.502C432.571 343.871 442.928 341.08 451.811 335.491C460.694 329.902 467.693 321.773 471.9 312.158C472.454 310.693 473.461 309.443 474.775 308.588C476.088 307.734 477.639 307.321 479.203 307.408C480.768 307.495 482.264 308.078 483.474 309.073C484.684 310.068 485.546 311.422 485.935 312.94C488.22 319.619 489.14 326.689 488.64 333.731C488.14 340.772 486.231 347.642 483.026 353.931C479.821 360.221 475.384 365.803 469.981 370.345C464.577 374.887 458.316 378.298 451.569 380.374C439.177 385.084 425.732 386.307 412.694 383.91C399.656 381.514 387.525 375.589 377.618 366.781C377.618 366.781 369.789 422.805 458.705 417.94C456.179 427.902 450.501 436.781 442.517 443.254C434.533 449.726 424.671 453.444 414.402 453.854C378.694 454.311 326.253 417.232 318.882 358.26C311.51 417.232 259.069 454.311 223.362 453.854C213.103 453.427 203.256 449.7 195.287 443.226C187.318 436.752 181.652 427.878 179.133 417.925C268.048 422.76 260.219 366.781 260.219 366.781C250.305 375.603 238.161 381.535 225.108 383.932C212.056 386.329 198.596 385.098 186.195 380.374C179.451 378.296 173.192 374.885 167.791 370.343C162.39 365.801 157.955 360.221 154.75 353.934C151.545 347.647 149.635 340.78 149.133 333.74C148.632 326.701 149.548 319.633 151.829 312.954C152.217 311.437 153.079 310.082 154.29 309.088C155.5 308.093 156.996 307.51 158.56 307.423C160.124 307.335 161.676 307.749 162.989 308.603C164.302 309.457 165.309 310.708 165.864 312.173C170.069 321.789 177.067 329.919 185.951 335.508C194.834 341.097 205.192 343.888 215.681 343.517C245.167 343.517 259.91 306.659 259.91 306.659C264.559 291.922 263.431 275.968 256.755 262.032L239.269 222.624C234.112 212.015 231.106 200.491 230.424 188.715C230.424 137.115 278.176 115 318.882 115C359.587 115 407.34 137.115 407.34 188.715C406.66 200.491 403.654 212.016 398.494 222.624L381.024 262.017Z" fill="white"/>
<path d="M293.096 229.259C294.074 229.259 295.011 229.647 295.703 230.338C296.394 231.03 296.782 231.967 296.782 232.945" fill="white"/>
<path d="M293.096 229.259C294.074 229.259 295.011 229.647 295.703 230.338C296.394 231.03 296.782 231.967 296.782 232.945" stroke="#4F46E5" stroke-width="24" stroke-linecap="round" stroke-linejoin="round"/>
<path d="M289.396 232.945C289.396 231.967 289.784 231.03 290.475 230.338C291.166 229.647 292.104 229.259 293.082 229.259" fill="white"/>
<path d="M289.396 232.945C289.396 231.967 289.784 231.03 290.475 230.338C291.166 229.647 292.104 229.259 293.082 229.259" stroke="#4F46E5" stroke-width="24" stroke-linecap="round" stroke-linejoin="round"/>
<path d="M293.096 236.63C292.119 236.63 291.181 236.242 290.49 235.551C289.799 234.859 289.411 233.922 289.411 232.944" fill="white"/>
<path d="M293.096 236.63C292.119 236.63 291.181 236.242 290.49 235.551C289.799 234.859 289.411 233.922 289.411 232.944" stroke="#4F46E5" stroke-width="24" stroke-linecap="round" stroke-linejoin="round"/>
<path d="M296.767 232.944C296.767 233.922 296.379 234.859 295.688 235.551C294.996 236.242 294.059 236.63 293.081 236.63" fill="white"/>
<path d="M296.767 232.944C296.767 233.922 296.379 234.859 295.688 235.551C294.996 236.242 294.059 236.63 293.081 236.63" stroke="#4F46E5" stroke-width="24" stroke-linecap="round" stroke-linejoin="round"/>
<path d="M344.697 229.259C343.719 229.259 342.782 229.647 342.091 230.338C341.4 231.03 341.011 231.967 341.011 232.945" fill="white"/>
<path d="M344.697 229.259C343.719 229.259 342.782 229.647 342.091 230.338C341.4 231.03 341.011 231.967 341.011 232.945" stroke="#4F46E5" stroke-width="24" stroke-linecap="round" stroke-linejoin="round"/>
<path d="M348.368 232.945C348.368 231.967 347.979 231.03 347.288 230.338C346.597 229.647 345.66 229.259 344.682 229.259" fill="white"/>
<path d="M348.368 232.945C348.368 231.967 347.979 231.03 347.288 230.338C346.597 229.647 345.66 229.259 344.682 229.259" stroke="#4F46E5" stroke-width="24" stroke-linecap="round" stroke-linejoin="round"/>
<path d="M344.697 236.63C345.674 236.63 346.612 236.242 347.303 235.551C347.994 234.859 348.383 233.922 348.383 232.944" fill="white"/>
<path d="M344.697 236.63C345.674 236.63 346.612 236.242 347.303 235.551C347.994 234.859 348.383 233.922 348.383 232.944" stroke="#4F46E5" stroke-width="24" stroke-linecap="round" stroke-linejoin="round"/>
<path d="M340.996 232.944C340.996 233.922 341.385 234.859 342.076 235.551C342.767 236.242 343.705 236.63 344.682 236.63" fill="white"/>
<path d="M340.996 232.944C340.996 233.922 341.385 234.859 342.076 235.551C342.767 236.242 343.705 236.63 344.682 236.63" stroke="#4F46E5" stroke-width="24" stroke-linecap="round" stroke-linejoin="round"/>
<path d="M636.148 429V210.818H696.659V429H636.148ZM666.545 182.693C657.549 182.693 649.831 179.71 643.392 173.744C637.047 167.684 633.875 160.439 633.875 152.011C633.875 143.678 637.047 136.528 643.392 130.562C649.831 124.502 657.549 121.472 666.545 121.472C675.542 121.472 683.212 124.502 689.557 130.562C695.996 136.528 699.216 143.678 699.216 152.011C699.216 160.439 695.996 167.684 689.557 173.744C683.212 179.71 675.542 182.693 666.545 182.693ZM805.643 302.864V429H745.132V210.818H802.803V249.312H805.359C810.189 236.623 818.286 226.585 829.649 219.199C841.013 211.718 854.791 207.977 870.984 207.977C886.136 207.977 899.346 211.292 910.615 217.92C921.884 224.549 930.643 234.019 936.893 246.33C943.143 258.545 946.268 273.129 946.268 290.08V429H885.757V300.875C885.852 287.523 882.443 277.106 875.53 269.625C868.617 262.049 859.1 258.261 846.979 258.261C838.835 258.261 831.638 260.013 825.388 263.517C819.232 267.021 814.403 272.134 810.899 278.858C807.49 285.487 805.738 293.489 805.643 302.864ZM1111.29 210.818V256.273H976.631V210.818H1111.29ZM1007.45 429V195.051C1007.45 179.237 1010.53 166.121 1016.69 155.705C1022.94 145.288 1031.46 137.475 1042.26 132.267C1053.05 127.059 1065.31 124.455 1079.05 124.455C1088.33 124.455 1096.8 125.165 1104.47 126.585C1112.24 128.006 1118.01 129.284 1121.8 130.42L1111.01 175.875C1108.64 175.117 1105.7 174.407 1102.2 173.744C1098.79 173.081 1095.29 172.75 1091.69 172.75C1082.79 172.75 1076.58 174.833 1073.08 179C1069.58 183.072 1067.82 188.801 1067.82 196.188V429H1007.45ZM1148.26 429V210.818H1206.92V248.886H1209.19C1213.17 235.345 1219.85 225.117 1229.22 218.205C1238.6 211.197 1249.39 207.693 1261.61 207.693C1264.64 207.693 1267.91 207.883 1271.41 208.261C1274.91 208.64 1277.99 209.161 1280.64 209.824V263.517C1277.8 262.665 1273.87 261.907 1268.85 261.244C1263.83 260.581 1259.24 260.25 1255.08 260.25C1246.17 260.25 1238.22 262.191 1231.21 266.074C1224.3 269.862 1218.81 275.165 1214.73 281.983C1210.76 288.801 1208.77 296.661 1208.77 305.562V429H1148.26ZM1367.89 433.119C1353.97 433.119 1341.57 430.705 1330.68 425.875C1319.79 420.951 1311.17 413.706 1304.83 404.142C1298.58 394.483 1295.45 382.456 1295.45 368.062C1295.45 355.941 1297.68 345.761 1302.13 337.523C1306.58 329.284 1312.64 322.655 1320.31 317.636C1327.98 312.617 1336.69 308.83 1346.45 306.273C1356.29 303.716 1366.62 301.917 1377.41 300.875C1390.1 299.549 1400.33 298.318 1408.09 297.182C1415.86 295.951 1421.49 294.152 1425 291.784C1428.5 289.417 1430.25 285.913 1430.25 281.273V280.42C1430.25 271.424 1427.41 264.464 1421.73 259.54C1416.14 254.616 1408.19 252.153 1397.87 252.153C1386.98 252.153 1378.31 254.568 1371.87 259.398C1365.43 264.133 1361.17 270.098 1359.09 277.295L1303.12 272.75C1305.96 259.492 1311.55 248.034 1319.88 238.375C1328.22 228.621 1338.96 221.14 1352.13 215.932C1365.39 210.629 1380.73 207.977 1398.15 207.977C1410.27 207.977 1421.87 209.398 1432.95 212.239C1444.13 215.08 1454.02 219.483 1462.64 225.449C1471.35 231.415 1478.22 239.085 1483.24 248.46C1488.25 257.741 1490.76 268.867 1490.76 281.841V429H1433.38V398.744H1431.67C1428.17 405.562 1423.48 411.576 1417.61 416.784C1411.74 421.898 1404.68 425.922 1396.45 428.858C1388.21 431.699 1378.69 433.119 1367.89 433.119ZM1385.22 391.358C1394.13 391.358 1401.99 389.606 1408.8 386.102C1415.62 382.504 1420.97 377.674 1424.86 371.614C1428.74 365.553 1430.68 358.687 1430.68 351.017V327.864C1428.79 329.095 1426.18 330.231 1422.87 331.273C1419.65 332.22 1416 333.119 1411.93 333.972C1407.86 334.729 1403.79 335.439 1399.71 336.102C1395.64 336.67 1391.95 337.191 1388.63 337.665C1381.53 338.706 1375.33 340.364 1370.03 342.636C1364.72 344.909 1360.6 347.987 1357.67 351.869C1354.73 355.657 1353.26 360.392 1353.26 366.074C1353.26 374.312 1356.25 380.61 1362.21 384.966C1368.27 389.227 1375.94 391.358 1385.22 391.358ZM1719.24 273.034L1663.85 276.443C1662.9 271.708 1660.86 267.447 1657.74 263.659C1654.61 259.777 1650.49 256.699 1645.38 254.426C1640.36 252.059 1634.35 250.875 1627.34 250.875C1617.97 250.875 1610.06 252.864 1603.62 256.841C1597.18 260.723 1593.96 265.932 1593.96 272.466C1593.96 277.674 1596.04 282.078 1600.21 285.676C1604.38 289.275 1611.53 292.163 1621.66 294.341L1661.15 302.295C1682.36 306.652 1698.17 313.659 1708.59 323.318C1719.01 332.977 1724.22 345.667 1724.22 361.386C1724.22 375.686 1720 388.233 1711.57 399.028C1703.24 409.824 1691.78 418.252 1677.2 424.312C1662.71 430.278 1646 433.261 1627.06 433.261C1598.17 433.261 1575.16 427.248 1558.02 415.222C1540.98 403.1 1530.99 386.623 1528.05 365.79L1587.57 362.665C1589.37 371.472 1593.72 378.195 1600.64 382.835C1607.55 387.381 1616.4 389.653 1627.2 389.653C1637.8 389.653 1646.33 387.617 1652.77 383.545C1659.3 379.379 1662.62 374.028 1662.71 367.494C1662.62 362.002 1660.3 357.504 1655.75 354C1651.2 350.402 1644.2 347.655 1634.73 345.761L1596.94 338.233C1575.64 333.972 1559.77 326.585 1549.36 316.074C1539.04 305.562 1533.88 292.163 1533.88 275.875C1533.88 261.86 1537.66 249.786 1545.24 239.653C1552.91 229.521 1563.66 221.708 1577.48 216.216C1591.4 210.723 1607.69 207.977 1626.35 207.977C1653.9 207.977 1675.59 213.801 1691.4 225.449C1707.31 237.097 1716.59 252.958 1719.24 273.034ZM1878.37 210.818V256.273H1746.98V210.818H1878.37ZM1776.81 158.545H1837.32V361.955C1837.32 367.542 1838.17 371.898 1839.88 375.023C1841.58 378.053 1843.95 380.184 1846.98 381.415C1850.1 382.646 1853.7 383.261 1857.77 383.261C1860.62 383.261 1863.46 383.025 1866.3 382.551C1869.14 381.983 1871.32 381.557 1872.83 381.273L1882.35 426.301C1879.32 427.248 1875.06 428.337 1869.56 429.568C1864.07 430.894 1857.4 431.699 1849.54 431.983C1834.95 432.551 1822.17 430.61 1811.18 426.159C1800.29 421.708 1791.82 414.795 1785.76 405.42C1779.7 396.045 1776.71 384.208 1776.81 369.909V158.545ZM1980 433.119C1966.08 433.119 1953.68 430.705 1942.79 425.875C1931.9 420.951 1923.28 413.706 1916.94 404.142C1910.69 394.483 1907.56 382.456 1907.56 368.062C1907.56 355.941 1909.79 345.761 1914.24 337.523C1918.69 329.284 1924.75 322.655 1932.42 317.636C1940.09 312.617 1948.8 308.83 1958.56 306.273C1968.4 303.716 1978.73 301.917 1989.52 300.875C2002.21 299.549 2012.44 298.318 2020.2 297.182C2027.97 295.951 2033.6 294.152 2037.11 291.784C2040.61 289.417 2042.36 285.913 2042.36 281.273V280.42C2042.36 271.424 2039.52 264.464 2033.84 259.54C2028.25 254.616 2020.3 252.153 2009.98 252.153C1999.09 252.153 1990.42 254.568 1983.98 259.398C1977.54 264.133 1973.28 270.098 1971.2 277.295L1915.23 272.75C1918.07 259.492 1923.66 248.034 1931.99 238.375C1940.33 228.621 1951.07 221.14 1964.24 215.932C1977.49 210.629 1992.84 207.977 2010.26 207.977C2022.38 207.977 2033.98 209.398 2045.06 212.239C2056.24 215.08 2066.13 219.483 2074.75 225.449C2083.46 231.415 2090.33 239.085 2095.35 248.46C2100.36 257.741 2102.87 268.867 2102.87 281.841V429H2045.49V398.744H2043.78C2040.28 405.562 2035.59 411.576 2029.72 416.784C2023.85 421.898 2016.79 425.922 2008.56 428.858C2000.32 431.699 1990.8 433.119 1980 433.119ZM1997.33 391.358C2006.24 391.358 2014.1 389.606 2020.91 386.102C2027.73 382.504 2033.08 377.674 2036.96 371.614C2040.85 365.553 2042.79 358.687 2042.79 351.017V327.864C2040.89 329.095 2038.29 330.231 2034.98 331.273C2031.76 332.22 2028.11 333.119 2024.04 333.972C2019.97 334.729 2015.89 335.439 2011.82 336.102C2007.75 336.67 2004.06 337.191 2000.74 337.665C1993.64 338.706 1987.44 340.364 1982.13 342.636C1976.83 344.909 1972.71 347.987 1969.78 351.869C1966.84 355.657 1965.37 360.392 1965.37 366.074C1965.37 374.312 1968.36 380.61 1974.32 384.966C1980.38 389.227 1988.05 391.358 1997.33 391.358ZM2248.4 433.261C2226.05 433.261 2206.83 428.527 2190.73 419.057C2174.72 409.492 2162.41 396.235 2153.8 379.284C2145.27 362.333 2141.01 342.826 2141.01 320.761C2141.01 298.413 2145.32 278.811 2153.94 261.955C2162.65 245.004 2175.01 231.794 2191.01 222.324C2207.02 212.759 2226.05 207.977 2248.12 207.977C2267.15 207.977 2283.82 211.434 2298.12 218.347C2312.41 225.259 2323.73 234.966 2332.06 247.466C2340.4 259.966 2344.99 274.644 2345.84 291.5H2288.74C2287.13 280.61 2282.87 271.85 2275.96 265.222C2269.14 258.498 2260.19 255.136 2249.11 255.136C2239.73 255.136 2231.54 257.693 2224.54 262.807C2217.62 267.826 2212.22 275.165 2208.34 284.824C2204.46 294.483 2202.52 306.178 2202.52 319.909C2202.52 333.83 2204.41 345.667 2208.2 355.42C2212.08 365.174 2217.53 372.608 2224.54 377.722C2231.54 382.835 2239.73 385.392 2249.11 385.392C2256.02 385.392 2262.22 383.972 2267.72 381.131C2273.3 378.29 2277.9 374.17 2281.5 368.773C2285.19 363.28 2287.6 356.699 2288.74 349.028H2345.84C2344.9 365.695 2340.35 380.373 2332.21 393.062C2324.16 405.657 2313.03 415.506 2298.83 422.608C2284.62 429.71 2267.81 433.261 2248.4 433.261ZM2439.41 366.216L2439.56 293.631H2448.36L2518.25 210.818H2587.71L2493.82 320.477H2479.47L2439.41 366.216ZM2384.59 429V138.091H2445.1V429H2384.59ZM2520.95 429L2456.74 333.972L2497.09 291.216L2591.83 429H2520.95Z" fill="white"/>
</svg>
