<svg width="2739" height="568" viewBox="0 0 2739 568" fill="none" xmlns="http://www.w3.org/2000/svg">
<rect width="2739" height="568" fill="black"/>
<rect x="39" y="4" width="560" height="560" fill="black"/>
<path d="M381.024 262.017C374.347 275.953 373.213 291.905 377.854 306.644C377.854 306.644 392.597 343.502 422.083 343.502C432.571 343.871 442.928 341.08 451.811 335.491C460.694 329.902 467.693 321.773 471.9 312.158C472.454 310.693 473.461 309.443 474.775 308.588C476.088 307.734 477.639 307.321 479.203 307.408C480.768 307.495 482.264 308.078 483.474 309.073C484.684 310.068 485.546 311.422 485.935 312.94C488.22 319.619 489.14 326.689 488.64 333.731C488.14 340.772 486.231 347.642 483.026 353.931C479.821 360.221 475.384 365.803 469.981 370.345C464.577 374.887 458.316 378.298 451.569 380.374C439.177 385.084 425.732 386.307 412.694 383.91C399.656 381.514 387.525 375.589 377.618 366.781C377.618 366.781 369.789 422.805 458.705 417.94C456.179 427.902 450.501 436.781 442.517 443.254C434.533 449.726 424.671 453.444 414.402 453.854C378.694 454.311 326.253 417.232 318.882 358.26C311.51 417.232 259.069 454.311 223.362 453.854C213.103 453.427 203.256 449.7 195.287 443.226C187.318 436.752 181.652 427.878 179.133 417.925C268.048 422.76 260.219 366.781 260.219 366.781C250.305 375.603 238.161 381.535 225.108 383.932C212.056 386.329 198.596 385.098 186.195 380.374C179.451 378.296 173.192 374.885 167.791 370.343C162.39 365.801 157.955 360.221 154.75 353.934C151.545 347.647 149.635 340.78 149.133 333.74C148.632 326.701 149.548 319.633 151.829 312.954C152.217 311.437 153.079 310.082 154.29 309.088C155.5 308.093 156.996 307.51 158.56 307.423C160.124 307.335 161.676 307.749 162.989 308.603C164.302 309.457 165.309 310.708 165.864 312.173C170.069 321.789 177.067 329.919 185.951 335.508C194.834 341.097 205.192 343.888 215.681 343.517C245.167 343.517 259.91 306.659 259.91 306.659C264.559 291.922 263.431 275.968 256.755 262.032L239.269 222.624C234.112 212.015 231.106 200.491 230.424 188.715C230.424 137.115 278.176 115 318.882 115C359.587 115 407.34 137.115 407.34 188.715C406.66 200.491 403.654 212.016 398.494 222.624L381.024 262.017Z" fill="white"/>
<path d="M293.096 229.259C294.074 229.259 295.011 229.647 295.703 230.338C296.394 231.03 296.782 231.967 296.782 232.945" fill="white"/>
<path d="M293.096 229.259C294.074 229.259 295.011 229.647 295.703 230.338C296.394 231.03 296.782 231.967 296.782 232.945" stroke="#4F46E5" stroke-width="24" stroke-linecap="round" stroke-linejoin="round"/>
<path d="M289.396 232.945C289.396 231.967 289.784 231.03 290.475 230.338C291.166 229.647 292.104 229.259 293.082 229.259" fill="white"/>
<path d="M289.396 232.945C289.396 231.967 289.784 231.03 290.475 230.338C291.166 229.647 292.104 229.259 293.082 229.259" stroke="#4F46E5" stroke-width="24" stroke-linecap="round" stroke-linejoin="round"/>
<path d="M293.096 236.63C292.119 236.63 291.181 236.242 290.49 235.551C289.799 234.859 289.411 233.922 289.411 232.944" fill="white"/>
<path d="M293.096 236.63C292.119 236.63 291.181 236.242 290.49 235.551C289.799 234.859 289.411 233.922 289.411 232.944" stroke="#4F46E5" stroke-width="24" stroke-linecap="round" stroke-linejoin="round"/>
<path d="M296.767 232.944C296.767 233.922 296.379 234.859 295.688 235.551C294.996 236.242 294.059 236.63 293.081 236.63" fill="white"/>
<path d="M296.767 232.944C296.767 233.922 296.379 234.859 295.688 235.551C294.996 236.242 294.059 236.63 293.081 236.63" stroke="#4F46E5" stroke-width="24" stroke-linecap="round" stroke-linejoin="round"/>
<path d="M344.697 229.259C343.719 229.259 342.782 229.647 342.091 230.338C341.4 231.03 341.011 231.967 341.011 232.945" fill="white"/>
<path d="M344.697 229.259C343.719 229.259 342.782 229.647 342.091 230.338C341.4 231.03 341.011 231.967 341.011 232.945" stroke="#4F46E5" stroke-width="24" stroke-linecap="round" stroke-linejoin="round"/>
<path d="M348.368 232.945C348.368 231.967 347.979 231.03 347.288 230.338C346.597 229.647 345.66 229.259 344.682 229.259" fill="white"/>
<path d="M348.368 232.945C348.368 231.967 347.979 231.03 347.288 230.338C346.597 229.647 345.66 229.259 344.682 229.259" stroke="#4F46E5" stroke-width="24" stroke-linecap="round" stroke-linejoin="round"/>
<path d="M344.697 236.63C345.674 236.63 346.612 236.242 347.303 235.551C347.994 234.859 348.383 233.922 348.383 232.944" fill="white"/>
<path d="M344.697 236.63C345.674 236.63 346.612 236.242 347.303 235.551C347.994 234.859 348.383 233.922 348.383 232.944" stroke="#4F46E5" stroke-width="24" stroke-linecap="round" stroke-linejoin="round"/>
<path d="M340.996 232.944C340.996 233.922 341.385 234.859 342.076 235.551C342.767 236.242 343.705 236.63 344.682 236.63" fill="white"/>
<path d="M340.996 232.944C340.996 233.922 341.385 234.859 342.076 235.551C342.767 236.242 343.705 236.63 344.682 236.63" stroke="#4F46E5" stroke-width="24" stroke-linecap="round" stroke-linejoin="round"/>
<path d="M698.79 138.091V429H637.284V138.091H698.79ZM808.768 302.864V429H748.257V210.818H805.928V249.312H808.484C813.314 236.623 821.411 226.585 832.774 219.199C844.138 211.718 857.916 207.977 874.109 207.977C889.261 207.977 902.471 211.292 913.74 217.92C925.009 224.549 933.768 234.019 940.018 246.33C946.268 258.545 949.393 273.129 949.393 290.08V429H888.882V300.875C888.977 287.523 885.568 277.106 878.655 269.625C871.742 262.049 862.225 258.261 850.104 258.261C841.96 258.261 834.763 260.013 828.513 263.517C822.357 267.021 817.528 272.134 814.024 278.858C810.615 285.487 808.863 293.489 808.768 302.864ZM1114.41 210.818V256.273H979.756V210.818H1114.41ZM1010.58 429V195.051C1010.58 179.237 1013.66 166.121 1019.81 155.705C1026.06 145.288 1034.59 137.475 1045.38 132.267C1056.18 127.059 1068.44 124.455 1082.17 124.455C1091.45 124.455 1099.93 125.165 1107.6 126.585C1115.36 128.006 1121.14 129.284 1124.93 130.42L1114.13 175.875C1111.76 175.117 1108.83 174.407 1105.32 173.744C1101.91 173.081 1098.41 172.75 1094.81 172.75C1085.91 172.75 1079.71 174.833 1076.2 179C1072.7 183.072 1070.95 188.801 1070.95 196.188V429H1010.58ZM1151.38 429V210.818H1210.05V248.886H1212.32C1216.3 235.345 1222.97 225.117 1232.35 218.205C1241.72 211.197 1252.52 207.693 1264.73 207.693C1267.76 207.693 1271.03 207.883 1274.54 208.261C1278.04 208.64 1281.12 209.161 1283.77 209.824V263.517C1280.93 262.665 1277 261.907 1271.98 261.244C1266.96 260.581 1262.37 260.25 1258.2 260.25C1249.3 260.25 1241.34 262.191 1234.34 266.074C1227.42 269.862 1221.93 275.165 1217.86 281.983C1213.88 288.801 1211.89 296.661 1211.89 305.562V429H1151.38ZM1371.02 433.119C1357.1 433.119 1344.69 430.705 1333.8 425.875C1322.91 420.951 1314.3 413.706 1307.95 404.142C1301.7 394.483 1298.58 382.456 1298.58 368.062C1298.58 355.941 1300.8 345.761 1305.25 337.523C1309.7 329.284 1315.76 322.655 1323.43 317.636C1331.11 312.617 1339.82 308.83 1349.57 306.273C1359.42 303.716 1369.74 301.917 1380.54 300.875C1393.23 299.549 1403.45 298.318 1411.22 297.182C1418.98 295.951 1424.62 294.152 1428.12 291.784C1431.63 289.417 1433.38 285.913 1433.38 281.273V280.42C1433.38 271.424 1430.54 264.464 1424.86 259.54C1419.27 254.616 1411.31 252.153 1400.99 252.153C1390.1 252.153 1381.44 254.568 1375 259.398C1368.56 264.133 1364.3 270.098 1362.21 277.295L1306.25 272.75C1309.09 259.492 1314.68 248.034 1323.01 238.375C1331.34 228.621 1342.09 221.14 1355.25 215.932C1368.51 210.629 1383.85 207.977 1401.28 207.977C1413.4 207.977 1425 209.398 1436.08 212.239C1447.25 215.08 1457.15 219.483 1465.76 225.449C1474.48 231.415 1481.34 239.085 1486.36 248.46C1491.38 257.741 1493.89 268.867 1493.89 281.841V429H1436.5V398.744H1434.8C1431.29 405.562 1426.61 411.576 1420.74 416.784C1414.86 421.898 1407.81 425.922 1399.57 428.858C1391.33 431.699 1381.82 433.119 1371.02 433.119ZM1388.35 391.358C1397.25 391.358 1405.11 389.606 1411.93 386.102C1418.75 382.504 1424.1 377.674 1427.98 371.614C1431.86 365.553 1433.8 358.687 1433.8 351.017V327.864C1431.91 329.095 1429.31 330.231 1425.99 331.273C1422.77 332.22 1419.13 333.119 1415.05 333.972C1410.98 334.729 1406.91 335.439 1402.84 336.102C1398.77 336.67 1395.07 337.191 1391.76 337.665C1384.66 338.706 1378.45 340.364 1373.15 342.636C1367.85 344.909 1363.73 347.987 1360.79 351.869C1357.86 355.657 1356.39 360.392 1356.39 366.074C1356.39 374.312 1359.37 380.61 1365.34 384.966C1371.4 389.227 1379.07 391.358 1388.35 391.358ZM1699.78 221.756C1698.65 210.297 1693.77 201.396 1685.15 195.051C1676.54 188.706 1664.84 185.534 1650.07 185.534C1640.03 185.534 1631.55 186.955 1624.64 189.795C1617.73 192.542 1612.43 196.377 1608.73 201.301C1605.13 206.225 1603.34 211.812 1603.34 218.062C1603.15 223.271 1604.23 227.816 1606.6 231.699C1609.06 235.581 1612.43 238.943 1616.69 241.784C1620.95 244.53 1625.87 246.945 1631.46 249.028C1637.05 251.017 1643.01 252.722 1649.36 254.142L1675.49 260.392C1688.18 263.233 1699.83 267.021 1710.44 271.756C1721.04 276.491 1730.23 282.314 1737.99 289.227C1745.76 296.14 1751.77 304.284 1756.03 313.659C1760.39 323.034 1762.62 333.782 1762.71 345.903C1762.62 363.706 1758.07 379.142 1749.07 392.21C1740.17 405.184 1727.29 415.269 1710.44 422.466C1693.68 429.568 1673.46 433.119 1649.78 433.119C1626.3 433.119 1605.84 429.521 1588.42 422.324C1571.09 415.127 1557.55 404.473 1547.8 390.364C1538.14 376.159 1533.07 358.593 1532.6 337.665H1592.11C1592.78 347.419 1595.57 355.562 1600.49 362.097C1605.51 368.536 1612.19 373.413 1620.52 376.727C1628.95 379.947 1638.47 381.557 1649.07 381.557C1659.49 381.557 1668.53 380.042 1676.2 377.011C1683.97 373.981 1689.98 369.767 1694.24 364.369C1698.51 358.972 1700.64 352.769 1700.64 345.761C1700.64 339.227 1698.7 333.735 1694.81 329.284C1691.02 324.833 1685.44 321.045 1678.05 317.92C1670.76 314.795 1661.81 311.955 1651.2 309.398L1619.53 301.443C1595 295.477 1575.64 286.15 1561.43 273.46C1547.23 260.771 1540.17 243.678 1540.27 222.182C1540.17 204.568 1544.86 189.18 1554.33 176.017C1563.89 162.854 1577.01 152.58 1593.68 145.193C1610.34 137.807 1629.28 134.114 1650.49 134.114C1672.09 134.114 1690.93 137.807 1707.03 145.193C1723.22 152.58 1735.82 162.854 1744.81 176.017C1753.81 189.18 1758.45 204.426 1758.73 221.756H1699.78ZM1919 210.818V256.273H1787.6V210.818H1919ZM1817.43 158.545H1877.94V361.955C1877.94 367.542 1878.8 371.898 1880.5 375.023C1882.21 378.053 1884.57 380.184 1887.6 381.415C1890.73 382.646 1894.33 383.261 1898.4 383.261C1901.24 383.261 1904.08 383.025 1906.92 382.551C1909.76 381.983 1911.94 381.557 1913.46 381.273L1922.97 426.301C1919.94 427.248 1915.68 428.337 1910.19 429.568C1904.7 430.894 1898.02 431.699 1890.16 431.983C1875.58 432.551 1862.79 430.61 1851.81 426.159C1840.92 421.708 1832.44 414.795 1826.38 405.42C1820.32 396.045 1817.34 384.208 1817.43 369.909V158.545ZM2020.63 433.119C2006.71 433.119 1994.3 430.705 1983.41 425.875C1972.52 420.951 1963.91 413.706 1957.56 404.142C1951.31 394.483 1948.19 382.456 1948.19 368.062C1948.19 355.941 1950.41 345.761 1954.86 337.523C1959.31 329.284 1965.37 322.655 1973.04 317.636C1980.71 312.617 1989.43 308.83 1999.18 306.273C2009.03 303.716 2019.35 301.917 2030.15 300.875C2042.84 299.549 2053.06 298.318 2060.83 297.182C2068.59 295.951 2074.23 294.152 2077.73 291.784C2081.24 289.417 2082.99 285.913 2082.99 281.273V280.42C2082.99 271.424 2080.15 264.464 2074.46 259.54C2068.88 254.616 2060.92 252.153 2050.6 252.153C2039.71 252.153 2031.05 254.568 2024.61 259.398C2018.17 264.133 2013.91 270.098 2011.82 277.295L1955.86 272.75C1958.7 259.492 1964.28 248.034 1972.62 238.375C1980.95 228.621 1991.7 221.14 2004.86 215.932C2018.12 210.629 2033.46 207.977 2050.88 207.977C2063.01 207.977 2074.61 209.398 2085.69 212.239C2096.86 215.08 2106.76 219.483 2115.37 225.449C2124.09 231.415 2130.95 239.085 2135.97 248.46C2140.99 257.741 2143.5 268.867 2143.5 281.841V429H2086.11V398.744H2084.41C2080.9 405.562 2076.22 411.576 2070.35 416.784C2064.47 421.898 2057.42 425.922 2049.18 428.858C2040.94 431.699 2031.42 433.119 2020.63 433.119ZM2037.96 391.358C2046.86 391.358 2054.72 389.606 2061.54 386.102C2068.36 382.504 2073.71 377.674 2077.59 371.614C2081.47 365.553 2083.41 358.687 2083.41 351.017V327.864C2081.52 329.095 2078.92 330.231 2075.6 331.273C2072.38 332.22 2068.74 333.119 2064.66 333.972C2060.59 334.729 2056.52 335.439 2052.45 336.102C2048.38 336.67 2044.68 337.191 2041.37 337.665C2034.27 338.706 2028.06 340.364 2022.76 342.636C2017.46 344.909 2013.34 347.987 2010.4 351.869C2007.47 355.657 2006 360.392 2006 366.074C2006 374.312 2008.98 380.61 2014.95 384.966C2021.01 389.227 2028.68 391.358 2037.96 391.358ZM2289.02 433.261C2266.68 433.261 2247.45 428.527 2231.35 419.057C2215.35 409.492 2203.04 396.235 2194.42 379.284C2185.9 362.333 2181.64 342.826 2181.64 320.761C2181.64 298.413 2185.95 278.811 2194.56 261.955C2203.28 245.004 2215.63 231.794 2231.64 222.324C2247.64 212.759 2266.68 207.977 2288.74 207.977C2307.77 207.977 2324.44 211.434 2338.74 218.347C2353.04 225.259 2364.36 234.966 2372.69 247.466C2381.02 259.966 2385.62 274.644 2386.47 291.5H2329.37C2327.76 280.61 2323.49 271.85 2316.58 265.222C2309.76 258.498 2300.81 255.136 2289.73 255.136C2280.36 255.136 2272.17 257.693 2265.16 262.807C2258.25 267.826 2252.85 275.165 2248.97 284.824C2245.08 294.483 2243.14 306.178 2243.14 319.909C2243.14 333.83 2245.04 345.667 2248.83 355.42C2252.71 365.174 2258.15 372.608 2265.16 377.722C2272.17 382.835 2280.36 385.392 2289.73 385.392C2296.65 385.392 2302.85 383.972 2308.34 381.131C2313.93 378.29 2318.52 374.17 2322.12 368.773C2325.81 363.28 2328.23 356.699 2329.37 349.028H2386.47C2385.52 365.695 2380.97 380.373 2372.83 393.062C2364.78 405.657 2353.65 415.506 2339.45 422.608C2325.25 429.71 2308.44 433.261 2289.02 433.261ZM2480.04 366.216L2480.18 293.631H2488.99L2558.88 210.818H2628.34L2534.44 320.477H2520.1L2480.04 366.216ZM2425.21 429V138.091H2485.72V429H2425.21ZM2561.57 429L2497.37 333.972L2537.71 291.216L2632.45 429H2561.57Z" fill="white"/>
</svg>
